<svg t="1619941248806" class="icon" viewBox="0 0 1024 1024" version="1.1" xmlns="http://www.w3.org/2000/svg" p-id="4092" width="200" height="200"><path d="M907.946667 863.573333l-163.2-163.2h136.106666a32 32 0 0 0 0-64h-224a21.333333 21.333333 0 0 0-21.333333 21.333334v224a32 32 0 1 0 64 0V746.666667l163.2 163.2a32 32 0 0 0 45.226667-45.226667zM367.146667 636.373333H143.146667a32 32 0 1 0 0 64h136.106666l-163.2 163.2a32 32 0 0 0 45.226667 45.226667l163.2-162.133333v136.106666a32 32 0 0 0 64 0V657.706667a21.333333 21.333333 0 0 0-21.333333-21.333334zM880 326.186667h-136.106667l164.053334-164.053334a32 32 0 1 0-45.226667-45.226666l-164.053333 164.053333V144.853333a32 32 0 1 0-64 0v224a21.333333 21.333333 0 0 0 21.333333 21.333334h224a32 32 0 1 0 0-64zM357.333333 112.853333a32 32 0 0 0-32 32v136.106667L161.28 116.906667A32 32 0 1 0 116.053333 162.133333l164.053334 164.053334H144a32 32 0 1 0 0 64h224a21.333333 21.333333 0 0 0 21.333333-21.333334V144.853333a32 32 0 0 0-32-32z" fill="#333333" p-id="4093"></path></svg>
